{"title":"The Texas Chain Saw Massacre [DVDRip-XviD-Ita/Eng-Ac3-Sub-Ita][N","uid":6170289,"size":1175451400,"categoryP":"video","categoryS":"movies","magnet":"?xt=urn:btih:4fdf55c3b4e65c25db3da95fb56f752d9dc7b984&amp;dn=The+Texas+Chain+Saw+Massacre+%5BDVDRip-XviD-Ita%2FEng-Ac3-Sub-Ita%5D%5BN&amp;tr=udp%3A%2F%2Ftracker.openbittorrent.com%3A80&amp;tr=udp%3A%2F%2Fopen.demonii.com%3A1337&amp;tr=udp%3A%2F%2Ftracker.coppersurfer.tk%3A6969&amp;tr=udp%3A%2F%2Fexodus.desync.com%3A6969","seeders":1,"leechers":0,"uploader":"maxneb","files":2,"time":1297543177,"description":"The Texas Chain Saw Massacre [DVDRip-XviD-Ita/Eng-Ac3-Sub-Ita][Nautilus-Bt]\n\n\n\n\nGeneral\nComplete name                    : C:\\Non aprite quella porta - The Texas Chain Saw Massacre [DVDRip-XviD-Ita-Eng-Ac3][RiP By MaX].avi\nFormat                           : AVI\nFormat/Info                      : Audio Video Interleave\nFile size                        : 1.09 GiB\nDuration                         : 1h 19mn\nOverall bit rate                 : 1 962 Kbps\nWriting application              : VirtualDubMod 1.5.10.2 (build 2540/release)\nWriting library                  : VirtualDubMod build 2540/release\n\nVideo\nID                               : 0\nFormat                           : MPEG-4 Visual\nFormat profile                   : Advanced Simple@L5\nFormat settings, BVOP            : Yes\nFormat settings, QPel            : No\nFormat settings, GMC             : No warppoints\nFormat settings, Matrix          : Default (H.263)\nCodec ID                         : XVID\nCodec ID/Hint                    : XviD\nDuration                         : 1h 19mn\nBit rate                         : 1 564 Kbps\nWidth                            : 656 pixels\nHeight                           : 368 pixels\nDisplay aspect ratio             : 16:9\nFrame rate                       : 25.000 fps\nColor space                      : YUV\nChroma subsampling               : 4:2:0\nBit depth                        : 8 bits\nScan type                        : Progressive\nBits/(Pixel*Frame)               : 0.259\nStream size                      : 893 MiB (80%)\nWriting library                  : XviD 1.2.1 (UTC 2008-12-04)\n\nAudio #1\nID                               : 1\nFormat                           : AC-3\nFormat/Info                      : Audio Coding 3\nMode extension                   : CM (complete main)\nCodec ID                         : 2000\nDuration                         : 1h 19mn\nBit rate mode                    : Constant\nBit rate                         : 192 Kbps\nChannel(s)                       : 2 channels\nChannel positions                : Front: L R\nSampling rate                    : 48.0 KHz\nBit depth                        : 16 bits\nVideo delay                      : 8ms\nStream size                      : 110 MiB (10%)\nAlignment                        : Split accross interleaves\nInterleave, duration             : 40 ms (1.00 video frame)\nInterleave, preload duration     : 500 ms\n\nAudio #2\nID                               : 2\nFormat                           : AC-3\nFormat/Info                      : Audio Coding 3\nMode extension                   : CM (complete main)\nCodec ID                         : 2000\nDuration                         : 1h 19mn\nBit rate mode                    : Constant\nBit rate                         : 192 Kbps\nChannel(s)                       : 2 channels\nChannel positions                : Front: L R\nSampling rate                    : 48.0 KHz\nBit depth                        : 16 bits\nStream size                      : 110 MiB (10%)\nAlignment                        : Split accross interleaves\nInterleave, duration             : 40 ms (1.00 video frame)\nInterleave, preload duration     : 500 ms\n","torrent":{"xt":"urn:btih:4fdf55c3b4e65c25db3da95fb56f752d9dc7b984","amp;dn":"The+Texas+Chain+Saw+Massacre+%5BDVDRip-XviD-Ita%2FEng-Ac3-Sub-Ita%5D%5BN","amp;tr":["udp%3A%2F%2Ftracker.openbittorrent.com%3A80","udp%3A%2F%2Fopen.demonii.com%3A1337","udp%3A%2F%2Ftracker.coppersurfer.tk%3A6969","udp%3A%2F%2Fexodus.desync.com%3A6969"],"infoHash":"4fdf55c3b4e65c25db3da95fb56f752d9dc7b984","infoHashBuffer":{"type":"Buffer","data":[79,223,85,195,180,230,92,37,219,61,169,95,181,111,117,45,157,199,185,132]},"announce":[],"urlList":[]}}